<?xml version="1.0" encoding="UTF-8"?> <svg xmlns="http://www.w3.org/2000/svg" xmlns:xlink="http://www.w3.org/1999/xlink" version="1.1" id="Layer_1" x="0px" y="0px" viewBox="0 0 185.5 36" style="enable-background:new 0 0 185.5 36;" xml:space="preserve"> <style type="text/css"> .st0{fill:#7D3F98;} </style> <g> <g> <path class="st0" d="M84.6,23.6c8.7,0,13.1-2.7,13.1-8.6C97.7,10,94,6.6,86,6.6c-9.7,0-13.5,4.3-14.4,12c-1.4-0.1-2.9-0.1-5.1-0.1 c0-0.4,0-0.8,0-1.3c0-7.8-3.2-10.7-11.9-10.7c-4.2,0-7.9,0.6-10.2,1.6l0.3,6.2c2-1.1,4.9-2.1,7.7-2.1c4,0,5.2,1.6,5.2,5.5l0,0.6 c-0.3,0-1,0-1.3,0c-9.8,0-14.4,3-14.4,8.5c0,5.7,2.8,9,10.9,9c4.2,0,8.5-0.6,13.9-0.6c-0.4-2.3-0.4-5.6-0.4-7.8 c0-1.2,0.1-2.6,0.1-4.2c2.3,0,4,0.1,5.1,0.1C72.4,32.6,77.2,36,87,36c3.7,0,7.3-0.6,9.3-1.5l-0.3-6.2c-1.9,1.1-4.6,2-7.5,2 c-4.8,0-7.5-2.5-7.5-6.5v-0.2C81.8,23.6,83.6,23.6,84.6,23.6z M55,30.5c-3,0-4.3-1-4.3-3.5c0-2.4,1.6-3.8,5.7-3.8 c0.4,0,0.8,0,1.2,0c0,2.3-0.1,5.1,0.1,7C56.9,30.4,55.9,30.5,55,30.5z M80.9,18.8v-0.1c0-3.9,1.2-6.8,4.8-6.8c2,0,3.3,1.1,3.3,3 c0,2.7-1.8,4-5.6,4C82.6,18.8,81.6,18.8,80.9,18.8z M115.4,29.7c-2.9,0-3.8-1.1-3.8-5.4V13.5h5.7v-6h-5.6c0-2.1,0.2-5.3,0.3-7.5 h-5.3c-0.7,5.3-2.2,8-7.1,8.8c0,1.4,0.1,3.4,0,4.7h3.2c-0.1,3-0.1,8.5-0.1,13.5c0,6.4,3.3,9,9.5,9c3,0,5.2-0.4,6-0.7l-0.4-6.2 C117.4,29.5,116.3,29.7,115.4,29.7z M175.8,17.2c0-7.8-3.2-10.7-11.9-10.7c-4.2,0-7.9,0.6-10.2,1.6l0.3,6.2c2-1.1,4.9-2.1,7.7-2.1 c3.9,0,5.1,1.6,5.1,5.5v0.6c-0.3,0-1,0-1.4,0c-9.9,0-14.4,3-14.4,8.5c0,5.7,2.8,9,10.9,9c4.2,0,8.4-0.6,13.9-0.6 c-0.4-2.3-0.4-5.6-0.4-7.8C175.5,25,175.8,21.4,175.8,17.2z M164.1,30.5c-3,0-4.3-1-4.3-3.5c0-2.4,1.6-3.8,5.7-3.8 c0.4,0,0.8,0,1.2,0c0,2.3-0.1,5.1,0.1,7C166.1,30.4,165,30.5,164.1,30.5z M147.5,22.4c0-2.4,0.1-5.5,0.1-5.5 c0-7.1-3.1-10.2-11.9-10.2c-4.9,0-8.4,0.9-13.9,0.9c0.3,5,0.3,11.1,0.3,14.9c0,3.9-0.1,10.8-0.3,13h9.4c-0.2-2.2-0.4-8.7-0.4-13 c0-2.5,0-5.5,0.1-9.5c0.9-0.3,2.1-0.6,3.4-0.6c3.3,0,4.4,1.6,4.4,5.8c0,0,0.1,2.7,0.1,4.2c0,3.9-0.1,10.8-0.3,13h9.4 C147.7,33.1,147.5,26.7,147.5,22.4z M30.9,5.3C30,4.5,28.8,4,27.7,4c-1.1,0-2.3,0.4-3.2,1.3l-5.2,5.2L14,5.4C13.1,4.5,12,4,10.9,4 S8.6,4.5,7.7,5.3l-6.4,6.4c-1.8,1.8-1.8,4.6,0,6.4L19.3,36l17.9-17.9c1.8-1.8,1.8-4.6,0-6.4L30.9,5.3z M183.2,8.2 c0-0.9-0.6-1.3-1.7-1.3h-1.8v4.7h0.8v-2h0.7l1.2,2h0.9L182,9.5C182.7,9.4,183.2,9.1,183.2,8.2z M180.5,8.9V7.5h0.9 c0.5,0,1,0.1,1,0.6c0,0.7-0.5,0.7-1.1,0.7L180.5,8.9L180.5,8.9z M181.4,4.9c-2.2,0-4.2,1.7-4.2,4.2c0,2.4,1.7,4.2,4.2,4.2 c2.2,0,4.1-1.7,4.1-4.2S183.6,4.9,181.4,4.9z M181.4,12.6c-2,0-3.3-1.6-3.3-3.5c0-2.1,1.4-3.5,3.3-3.5c1.8,0,3.2,1.4,3.2,3.5 C184.6,11.2,183.2,12.6,181.4,12.6z"></path> </g> </g> </svg> 