<svg id="a2686957-a8da-41e0-9f36-69e0dea187e2" data-name="Layer 1" xmlns="http://www.w3.org/2000/svg" viewBox="0 0 407.43011 118.14386"><defs><style>.ef14b4eb-24fa-47f6-ae9f-f3e51ea98d3a{fill:#0033a0;}</style></defs><path class="ef14b4eb-24fa-47f6-ae9f-f3e51ea98d3a" d="M94.78855,32.71869c-32.19665,0-58.39667,19.88348-58.39667,44.33227,0,24.43927,26.2,45.87872,58.39667,45.87872,32.202,0,58.3924-21.43945,58.3924-45.87872C153.181,52.60217,126.99052,32.71869,94.78855,32.71869Zm.00165,87.18249c-27.87225,0-50.55475-20.00091-50.55475-42.79712,0-22.80664,22.6825-41.35656,50.55475-41.35656,27.8855,0,50.55981,18.54992,50.55981,41.35656C145.35,99.90027,122.6757,119.90118,94.7902,119.90118Z" transform="translate(-36.39188 -32.71869)"/><path class="ef14b4eb-24fa-47f6-ae9f-f3e51ea98d3a" d="M200.94767,109.23608l11.40753-.0025V52.39569H194.96873l-35.35236,56.83447h12.018s8.71832-14.14978,9.01947-14.63318h20.2857Zm-.02588-24.70837h-13.943c.86938-1.38263,13.943-22.62995,13.943-22.62995Z" transform="translate(-36.39188 -32.71869)"/><rect class="ef14b4eb-24fa-47f6-ae9f-f3e51ea98d3a" x="184.05774" y="19.67514" width="11.08673" height="56.84225"/><rect class="ef14b4eb-24fa-47f6-ae9f-f3e51ea98d3a" x="203.21393" y="19.67444" width="11.07013" height="56.84296"/><path class="ef14b4eb-24fa-47f6-ae9f-f3e51ea98d3a" d="M286.78452,105.664a12.10982,12.10982,0,0,0,3.23529-9.03381c-.1441-9.41077-4.89294-11.64795-14.9439-14.23938-6.02924-1.57392-7.29133-2.4574-7.13068-4.9693.13006-2.27735,1.98266-3.587,5.08057-3.587a27.15758,27.15758,0,0,1,12.54241,3.60889l.634.36291,1.52673-9.485-.36072-.16962a34.76545,34.76545,0,0,0-14.34246-2.892c-5.06257,0-9.36585,1.56159-12.1449,4.3935a11.52461,11.52461,0,0,0-3.27234,8.4259c.19354,8.76361,4.36987,11.24206,14.26269,13.78656,6.543,1.61383,7.872,2.57257,7.82251,5.69153-.03619,2.80291-1.70849,3.86114-6.15753,3.86114a27.38662,27.38662,0,0,1-14.452-4.68951l-.66047-.43878-1.53741,9.51977.32953.18262a35.20835,35.20835,0,0,0,15.98273,3.99371C279.38676,109.98614,283.95744,108.52032,286.78452,105.664Z" transform="translate(-36.39188 -32.71869)"/><path class="ef14b4eb-24fa-47f6-ae9f-f3e51ea98d3a" d="M317.88279,109.26812l.4975-.09552-1.43518-9.51672-.57386.15308a11.57738,11.57738,0,0,1-3.042.316c-3.28528,0-4.81372-1.48206-4.81372-4.68671V75.31268h8.129l.14972-9.25433h-8.27875V52.39312H297.61173V66.05835h-5.69665v9.25433h5.69665V97.1131c0,8.63067,4.50666,12.85253,13.79975,12.85253A27.71139,27.71139,0,0,0,317.88279,109.26812Z" transform="translate(-36.39188 -32.71869)"/><path class="ef14b4eb-24fa-47f6-ae9f-f3e51ea98d3a" d="M340.53971,65.1701A42.691,42.691,0,0,0,324.3,68.47278l-.39277.15228,1.42286,9.11725.61993-.27393A32.40147,32.40147,0,0,1,339.218,74.248c4.36762,0,6.42139,1.80652,6.42139,5.69715v1.11407c-16.37323,1.686-24.34405,7.27027-24.34405,17.08252,0,7.24805,4.69683,11.92664,11.98,11.92664a17.96572,17.96572,0,0,0,13.08508-5.59265c.20929,1.25567.77252,4.75439.77252,4.75439h9.57709V79.65051C356.71006,69.7821,351.57615,65.1701,340.53971,65.1701Zm5.09967,32.17725a12.86971,12.86971,0,0,1-8.93048,4.071,4.06828,4.06828,0,0,1-4.415-4.35528c0-4.78162,4.60858-7.9065,13.34552-9.079Z" transform="translate(-36.39188 -32.71869)"/><path class="ef14b4eb-24fa-47f6-ae9f-f3e51ea98d3a" d="M384.58176,99.809a11.57559,11.57559,0,0,1-3.03015.316c-3.29791,0-4.8435-1.48206-4.8435-4.68671V75.31268h8.14532l.15088-9.25433h-8.2962V52.39312H365.78519V66.05835h-5.66766v9.25433h5.66766V97.1131c0,8.63067,4.5373,12.85253,13.83545,12.85253a28.113,28.113,0,0,0,6.46967-.69751l.48511-.09552-1.42871-9.51672Z" transform="translate(-36.39188 -32.71869)"/><path class="ef14b4eb-24fa-47f6-ae9f-f3e51ea98d3a" d="M425.22483,87.26153c0-14.62957-6.082-22.07061-18.09094-22.09143-5.27661-.01458-9.60376,1.64051-12.86121,4.90387-3.96734,3.94342-6.066,10.08246-6.066,17.69177,0,13.772,7.78632,22.30268,20.26215,22.30268a28.46372,28.46372,0,0,0,16.44482-5.01624l.27167-.18115-1.34558-9.02655-.681.486c-4.96033,3.43866-9.01581,4.92072-13.60059,4.92072-5.95111,0-9.64734-4.02826-10.28131-11.03559h25.83423ZM399.43327,82.9071c.4989-6.19128,3.19146-9.74817,7.45117-9.74817,5.73034,0,7.2503,5.16791,7.47674,9.74817Z" transform="translate(-36.39188 -32.71869)"/><path class="ef14b4eb-24fa-47f6-ae9f-f3e51ea98d3a" d="M103.53,101.76074c-.15509-1.11945-1.49726-2.59729-5.94971-2.858a29.09158,29.09158,0,0,0-3.5044.11377h-.19018c0-.0315-1.99725-1.31439-1.99725-1.31439l-.838-.47669c-.11432-.05426-2.76251-1.45062-2.76251-1.45062s-1.67816-.6554-1.684-.66242c0-.04888-1.50427-2.14758-1.50427-2.14758l-.55-.77807c-.00421-.00342-1.59839-2.30713-1.59839-2.30713l-.68542-1.00537c-.04212-.05652-.91944-1.41529-.91944-1.41529a4.018,4.018,0,0,0,.816-2.63128c-.11767.18371-.20642.23205-.82641.7644a13.36884,13.36884,0,0,1-3.76166,1.68262l-.561.15033,4.4682,5.86737,2.16834,2.84143,1.00256,1.0191c0,.00733,2.02368,1.13153,2.02368,1.13153L88.5922,99.327l.24268.13648,1.40484.78631,2.37482,1.29865a1.98583,1.98583,0,0,0,.43066.04437l3.05463-.193a13.02122,13.02122,0,0,1,5.16846.6225,1.77388,1.77388,0,0,1,.9953,2.17761S103.82487,103.08691,103.53,101.76074Z" transform="translate(-36.39188 -32.71869)"/><path class="ef14b4eb-24fa-47f6-ae9f-f3e51ea98d3a" d="M110.87266,91.72577c-.602-.85736-1.427-1.6897-3.85468-1.96808,0,0-2.97369-.4101-2.98047-.4101,0-.02221-1.59948-1.10431-1.59948-1.10431l-2.09479-1.29748-.54212-.322-1.71948-.74774-4.4884-7.21778a3.80786,3.80786,0,0,0-.32166-2.52337L92.93,76.947a5.66218,5.66218,0,0,1-2.2442,2.27118l-.35254.19464,4.6828,6.6933c0,.00506.27893.43988.27893.43988l.8927,1.20794c.12164.11487,1.95795,1.1551,1.95795,1.1551l.69446.38989,2.11157,1.2605,1.93323,1.28936.1441.03907,2.8847.18652a6.33643,6.33643,0,0,1,3.2757,1.16156,2.62776,2.62776,0,0,1,.84668,3.28046S112.47129,94.21856,110.87266,91.72577Z" transform="translate(-36.39188 -32.71869)"/><path class="ef14b4eb-24fa-47f6-ae9f-f3e51ea98d3a" d="M74.77445,39.57855l2.35883,2.1571c0,.01349,1.34723,1.27448,1.34723,1.27448.9967.95624,1.23126,1.44617,1.20007,1.63214-.04156.18372-.22613.27332-.40509.37219a1.977,1.977,0,0,1-.45508.16883l-.11065.89556.55365-.02532c3.11022-.07441,6.03875,2.03155,7.93713,3.82043a22.52083,22.52083,0,0,1,6.32751,12.968l2.57178,13.3753.96747,2.05908.18481.41913.42334.87586a8.15351,8.15351,0,0,0,.97956,1.69476c.06012.05756,1.33062,1.06689,1.33062,1.06689l1.85712,1.89924.5492.59161.88769.88708c.07159.05,2.68689.38715,2.68689.38715,4.55865.75958,4.3634,3.29254,4.3634,3.29254s2.71106-4.16229-3.7611-5.6261c0,0-2.04-.38684-2.08271-.38684v-.00671c0-.04749-.72925-1.03711-.72925-1.03711-.08734-.09271-.24383-.27051-.24383-.27051-.041-.05029-1.97479-1.95373-1.97479-1.95373l-.88935-.84418c0-.02-.80792-2.1695-.80792-2.1695l-1.14441-2.774a25.96654,25.96654,0,0,1-.74188-4.0951c-.01544-.0733-.20032-1.35626-.20032-1.35626l-.84918-5.6095c.01239-.0924.191-1.10034.191-1.10034a27.79277,27.79277,0,0,1,2.34-6.92529,14.0136,14.0136,0,0,1,4.3988-4.97974,22.91038,22.91038,0,0,1,7.13318-2.43658,1.043,1.043,0,0,0,.98456-.84442l.07556-.22449-.21881-.03369a6.048,6.048,0,0,1-2.14276-.67645.46609.46609,0,0,1-.03595-.17163,1.74256,1.74256,0,0,1,.357-.7851c.01239,0,1.40485-1.3501,1.40485-1.3501l.8172-.80957s3.42541-3.31085,3.87512-3.74823l-3.17682-1.0711c-.418.43347-3.517,3.64233-3.517,3.64233-2.32654,2.49841-4.95251,5.31934-6.15869,5.82159a14.43143,14.43143,0,0,0-7.175,6.85926c0,.00982-.525,1.36834-.80536,2.11133a20.75561,20.75561,0,0,0-3.544-6.57471,15.5913,15.5913,0,0,0-6.2511-4.53c-1.37842-1.309-5.90113-5.45135-8.35626-7.46381l-2.96418.9621C74.29154,39.08215,74.77445,39.57458,74.77445,39.57855Z" transform="translate(-36.39188 -32.71869)"/><path class="ef14b4eb-24fa-47f6-ae9f-f3e51ea98d3a" d="M132.46012,51.80212c-1.75348,1.19415-3.52685,1.67957-4.62579,1.238-.1604-.06067-1.61634-.88318-1.61634-.88318a3.62345,3.62345,0,0,0-.34161-.18121c-.05054-.00953-.49469-.0691-.49469-.0691-.05926.00422-.54327.10785-.54327.10785l-.31659.07617.49469.57306a18.309,18.309,0,0,1,2.30292,3.68976c.0202.03424.44384.83374.44384.83374l.42334.98908.08625.20508.5534,1.43066.10193.30139.29974.82758,1.16071,4.08166a48.00122,48.00122,0,0,1,1.513,10.503c0,.043-.04437.33624-.04437.33624-.00507.01655-1.36609,3.84626-1.36609,3.84626-1.40595,3.978-3.17175,8.93011-3.56781,10.96814l-.08484.24133a39.69084,39.69084,0,0,0-7.58069,11.33618c-.179.364-.30279.41461-.35144.42328-.173.03119-.61432-.37445-.85168-.5885a5.99046,5.99046,0,0,1-1.442-4.50159,7.43865,7.43865,0,0,1,2.72992-5.63366c.26746-.20173.166-.58124.10645-.8003-.45929-2.61615.27978-6.62085,1.89306-7.75372l.41687-.30481-.407-.30786c-4.62042-3.58-6.87891-10.20239-7.07135-15.14392l-.02472-.64752-.71607.30371a4.37486,4.37486,0,0,0-.35589.48736,15.64527,15.64527,0,0,0-.25873,2.8852,24.12009,24.12009,0,0,0,.68768,5.54577,17.60329,17.60329,0,0,0,3.96814,7.52564s.04273.05.08313.10308c-.85956,1.07984-1.24078,3.70691-1.24078,5.73505a9.48879,9.48879,0,0,0,.10675,1.59473,8.42,8.42,0,0,0-2.87677,5.91266s.07159,1.7843.07159,1.80792c-.02386-.04328-1.05029,1.33264-1.05029,1.33264l-.20343.29187c-2.05286,2.82849-3.48975,4.79883-6.92389,6.561-3.74,1.94165-10.98163,3.27906-15.68463,2.81781a1.601,1.601,0,0,1-1.54028-1.82141,1.077,1.077,0,0,1,.23291-.6405s.34662-.37219.44806-.48431c4.44824.504,8.69-.03791,10.45465-.97.0733-.0708.61883-.87616.61883-.87616l.21326-.37867-.42981.09723c-3.78363.95032-11.29993-.29809-15.27539-1.98578-4.42157-1.89111-5.7699-3.67657-9.38159-8.44476l-1.00763-1.32562a8.353,8.353,0,0,0-1.03852-3.837,6.8519,6.8519,0,0,0-1.642-1.93939,10.15253,10.15253,0,0,0,.42981-3.09454,8.56805,8.56805,0,0,0-.85254-4.11957c2.68634-2.10089,4.05127-4.25885,4.01141-6.73706a12.01135,12.01135,0,0,0-.66913-2.96307l-1.03265-.47779.07165.6792c.41095,4.18952-3.49261,6.90766-6.07836,8.71979,0,.00616-.75593.52-.75593.52l.49549.30847c2.02789,1.2655,2.05377,5.523,1.59393,7.91522l-.02362.13819.10761.19775.11822.05926c-.01709-.00506.97308.78656.97308.78656a7.80254,7.80254,0,0,1-.36908,9.48444c-.45507.47473-.69921.534-.82531.5188-.33344-.07135-.60144-.852-.67365-1.11127-.0188-.03143-.63287-1.31128-.63287-1.31128a45.2554,45.2554,0,0,0-6.68036-10.862c0-.00732-.0885-.33062-.0885-.33062-.66913-5.37128-1.50232-9.34986-2.31555-13.18488l-.44751-2.0835c0-.01068-.05335-.54187-.05335-.54187.24494-4.0791,1.50849-7.2846,2.98889-10.99511L61.70335,56.49l.74023-1.77368a2.64523,2.64523,0,0,0,.13171-.2613A16.2187,16.2187,0,0,1,66.03,50.95093l.63458-.47413-.82471-.343a10.75934,10.75934,0,0,0-3.21.968l-.28735.13709a4.86618,4.86618,0,0,1-3.551.57782s-2.70428-1.61383-2.84222-1.68909l-2.33326,2.45459c.21717.15393.77619.55255.77619.55255.07751.05475,3.59424,2.96753,4.11194,3.40406-.08454.22363-1.5318,4.23559-1.5318,4.23559-1.32733,3.34033-2.65827,6.70593-2.73523,9.356l.02417.42731c.01068.06091,1.15,6.014,1.15,6.014l.09326.443c.64246,3.12518,1.36329,6.68371,1.6695,9.24255.071.72138.24353,1.1593.525,1.331,1.73572,1.80707,4.57209,5.47467,7.99665,12.47382.10229.18207.15033.29523.20422.37476a3.55512,3.55512,0,0,0,1.23517,1.92364,2.952,2.952,0,0,0,2.58893,0,9.69748,9.69748,0,0,0,3.75659-4.70386c.26629.32422.995,1.27338,1.11072,1.40711-2.94819,5.10669,2.26611,7.002,4.11847,6.27246-1.07087,3.09454,2.88073,5.58618,6.59973,3.92773.4834,2.00763,2.07592,2.59394,3.59253,2.88691a23.88385,23.88385,0,0,0,6.91156.1632,34.564,34.564,0,0,0,11.46063-2.90686,19.38474,19.38474,0,0,0,7.25561-6.27081c.01966-.04321.2464-.31519.39356-.51855a10.13388,10.13388,0,0,0,1.3324,1.936c1.24157,1.21216,2.4071,1.75574,3.35437,1.581a2.10565,2.10565,0,0,0,1.56268-1.3175c1.72565-4.15912,5.498-9.28351,8.45264-12.71655,0-.01068.28118-.5492.28118-.5492.645-2.43829,2.94251-8.47729,4.1662-11.7384l.87195-2.3476c0-.01287.17047-.56518.17047-.56518.06128-.93512.091-1.87226.091-2.7945a36.62439,36.62439,0,0,0-1.7613-11.60473,20.9247,20.9247,0,0,0-1.6762-3.77234l-.62165-1.13855c.84076-1.252,3.28919-2.90009,5.25305-4.22632,0,0,.11237-.06683.15479-.08759l-2.41107-2.63775C133.99528,50.73858,132.46012,51.80212,132.46012,51.80212ZM75.87168,100.43347a25.13238,25.13238,0,0,0,3.21222,2.83716C76.2501,104.04822,75.20341,102.05377,75.87168,100.43347Zm4.90021,4.05127a15.54614,15.54614,0,0,0,5.44971,1.94672C82.06266,108.54754,79.764,106.713,80.77189,104.48474Z" transform="translate(-36.39188 -32.71869)"/><path class="ef14b4eb-24fa-47f6-ae9f-f3e51ea98d3a" d="M108.94364,98.40667c-.13739-1.993-1.85657-3.85553-8.24139-3.77825,0-.0163-1.756-1.03571-1.756-1.03571l-.51294-.30029-2.83295-1.45319s-2.29956-.78595-2.3111-.78595v-.004a11.34881,11.34881,0,0,0-.54327-1.01324,33.34242,33.34242,0,0,0-2.67877-3.85913L89.79,85.8432s-1.56836-2.16608-1.75318-2.43915a4.53951,4.53951,0,0,0,.07947-2.60992,7.41344,7.41344,0,0,1-.70087,1.06353,9.7602,9.7602,0,0,1-2.40319,1.91242l-.43122.27752,5.79352,7.90571.60876.85736.30561.38623c.12561.1062,2.0119.859,2.0119.859a33.41036,33.41036,0,0,1,3.79034,1.79589l2.1363,1.25623c.168.07,2.3684-.091,3.81427.02191a5.14639,5.14639,0,0,1,3.95068,1.8866,2.53317,2.53317,0,0,1-.21491,2.89789C107.039,101.7832,109.08665,100.48346,108.94364,98.40667Z" transform="translate(-36.39188 -32.71869)"/><polygon class="ef14b4eb-24fa-47f6-ae9f-f3e51ea98d3a" points="122.309 104.781 113.224 104.781 113.224 96.347 109.101 96.347 109.101 117.741 113.224 117.741 113.224 108.439 122.309 108.439 122.309 117.741 126.433 117.741 126.433 96.347 122.309 96.347 122.309 104.781"/><polygon class="ef14b4eb-24fa-47f6-ae9f-f3e51ea98d3a" points="135.017 108.346 142.024 108.346 141.466 104.905 135.017 104.905 135.017 99.82 143.388 99.82 143.388 96.347 130.955 96.347 130.955 117.741 143.698 117.741 143.698 114.268 135.017 114.268 135.017 108.346"/><path class="ef14b4eb-24fa-47f6-ae9f-f3e51ea98d3a" d="M189.82249,128.9729l-8.03028,21.48633h4.06153l1.92236-5.42579h8.12354L197.946,150.677l4.09278-.74414-7.84424-20.96Zm-.93018,12.71191,2.9458-8.27832,2.91406,8.27832Z" transform="translate(-36.39188 -32.71869)"/><polygon class="ef14b4eb-24fa-47f6-ae9f-f3e51ea98d3a" points="172.681 114.114 172.681 96.347 168.558 96.347 168.558 117.741 180.371 117.741 179.812 114.114 172.681 114.114"/><polygon class="ef14b4eb-24fa-47f6-ae9f-f3e51ea98d3a" points="178.818 96.347 178.818 99.912 185.268 99.912 185.268 117.741 189.36 117.741 189.36 99.912 196.026 99.912 195.437 96.347 178.818 96.347"/><polygon class="ef14b4eb-24fa-47f6-ae9f-f3e51ea98d3a" points="212.145 104.781 203.061 104.781 203.061 96.347 198.937 96.347 198.937 117.741 203.061 117.741 203.061 108.439 212.145 108.439 212.145 117.741 216.269 117.741 216.269 96.347 212.145 96.347 212.145 104.781"/><path class="ef14b4eb-24fa-47f6-ae9f-f3e51ea98d3a" d="M270.82444,137.71606c-2.97656-1.24023-3.6582-1.8916-3.6582-3.25586,0-1.30176.89941-2.29394,2.94531-2.29394a9.53647,9.53647,0,0,1,5.05371,1.67383l.62012-3.72071a11.50549,11.50549,0,0,0-5.64258-1.30176c-4,0-6.91406,2.20118-6.91406,5.98438,0,3.31738,1.67383,4.68164,5.8291,6.38672,3.10058,1.333,3.84473,1.98437,3.84473,3.56543,0,1.706-1.30274,2.60449-3.19434,2.60449a12.7462,12.7462,0,0,1-6.16992-1.89062l-.62012,3.751a15.48506,15.48506,0,0,0,6.72852,1.48828c4.124,0,7.19336-2.16992,7.19336-6.35547C276.84007,141.03344,275.22776,139.51489,270.82444,137.71606Z" transform="translate(-36.39188 -32.71869)"/><path class="ef14b4eb-24fa-47f6-ae9f-f3e51ea98d3a" d="M289.48655,128.66235c-6.10742,0-10.07617,4.49609-10.07617,11.13086,0,6.60449,3.9375,11.06934,10.01465,11.06934,6.13867,0,10.07714-4.52637,10.07714-11.13086S295.6262,128.66235,289.48655,128.66235Zm-.03027,18.79c-3.65918,0-5.86036-3.00781-5.86036-7.68945,0-4.68262,2.20118-7.68946,5.86036-7.68946,3.6582,0,5.89062,3.00684,5.89062,7.68946C295.3469,144.44458,293.14573,147.45239,289.45628,147.45239Z" transform="translate(-36.39188 -32.71869)"/><polygon class="ef14b4eb-24fa-47f6-ae9f-f3e51ea98d3a" points="270.919 114.114 270.919 96.347 266.795 96.347 266.795 117.741 278.608 117.741 278.051 114.114 270.919 114.114"/><path class="ef14b4eb-24fa-47f6-ae9f-f3e51ea98d3a" d="M330.28342,142.05688c0,3.28711-1.51953,5.209-4.55761,5.209-3.00782,0-4.4961-2.0459-4.4961-5.30176V129.06567h-4.09277v13.11524c0,5.581,3.37988,8.65039,8.55762,8.65039s8.71289-3.06934,8.71289-8.74317V129.06567h-4.124Z" transform="translate(-36.39188 -32.71869)"/><polygon class="ef14b4eb-24fa-47f6-ae9f-f3e51ea98d3a" points="300.926 96.347 300.926 99.912 307.375 99.912 307.375 117.741 311.468 117.741 311.468 99.912 318.134 99.912 317.545 96.347 300.926 96.347"/><rect class="ef14b4eb-24fa-47f6-ae9f-f3e51ea98d3a" x="321.20013" y="96.34698" width="4.12305" height="21.39355"/><path class="ef14b4eb-24fa-47f6-ae9f-f3e51ea98d3a" d="M375.60374,128.66235c-6.10742,0-10.07617,4.49609-10.07617,11.13086,0,6.60449,3.9375,11.06934,10.01464,11.06934,6.13868,0,10.07715-4.52637,10.07715-11.13086S381.74339,128.66235,375.60374,128.66235Zm-.03028,18.79c-3.65918,0-5.86035-3.00781-5.86035-7.68945,0-4.68262,2.20117-7.68946,5.86035-7.68946,3.65821,0,5.89063,3.00684,5.89063,7.68946C381.46409,144.44458,379.26292,147.45239,375.57346,147.45239Z" transform="translate(-36.39188 -32.71869)"/><polygon class="ef14b4eb-24fa-47f6-ae9f-f3e51ea98d3a" points="366.399 110.362 356.788 96.347 352.912 96.347 352.912 117.741 356.726 117.741 356.726 103.013 366.803 117.741 370.213 117.741 370.213 96.347 366.399 96.347 366.399 110.362"/><path class="ef14b4eb-24fa-47f6-ae9f-f3e51ea98d3a" d="M418.135,137.71606c-2.97657-1.24023-3.65821-1.8916-3.65821-3.25586,0-1.30176.89844-2.29394,2.94532-2.29394a9.53923,9.53923,0,0,1,5.05371,1.67383l.62011-3.72071a11.50542,11.50542,0,0,0-5.64257-1.30176c-4,0-6.91407,2.20118-6.91407,5.98438,0,3.31738,1.67383,4.68164,5.82813,6.38672,3.10156,1.333,3.8457,1.98437,3.8457,3.56543,0,1.706-1.30273,2.60449-3.19433,2.60449a12.73986,12.73986,0,0,1-6.16993-1.89062l-.62011,3.751a15.485,15.485,0,0,0,6.72851,1.48828c4.12305,0,7.19336-2.16992,7.19336-6.35547C424.15061,141.03344,422.53831,139.51489,418.135,137.71606Z" transform="translate(-36.39188 -32.71869)"/><path class="ef14b4eb-24fa-47f6-ae9f-f3e51ea98d3a" d="M439.10508,99.36694a4.58529,4.58529,0,0,0-4.7168,4.84656,4.7186,4.7186,0,1,0,4.7168-4.84656Zm0,9.10242a4.27434,4.27434,0,1,1,4.05255-4.25586A3.92228,3.92228,0,0,1,439.10508,108.46936Z" transform="translate(-36.39188 -32.71869)"/><path class="ef14b4eb-24fa-47f6-ae9f-f3e51ea98d3a" d="M440.95426,102.92285c0-1.00006-.7492-1.55682-1.87286-1.55682h-1.6203v5.33978h.922v-2.20337h.51867L440.5,106.78717l.91351-.2077-1.54065-2.18122A1.44642,1.44642,0,0,0,440.95426,102.92285Zm-1.9118.85083h-.65936v-1.57794h.6983c.6051,0,.93725.26941.93725.78973C440.01865,103.5271,439.64408,103.77368,439.04246,103.77368Z" transform="translate(-36.39188 -32.71869)"/></svg>