<?xml version="1.0" encoding="UTF-8"?> <svg xmlns="http://www.w3.org/2000/svg" xmlns:xlink="http://www.w3.org/1999/xlink" version="1.1" id="Layer_1" x="0px" y="0px" viewBox="0 0 759.9 256" style="enable-background:new 0 0 759.9 256;" xml:space="preserve"> <style type="text/css"> .st0{fill:#0982C6;} .st1{fill:#F8971F;} .st2{fill:#56B948;} </style> <g> <path class="st0" d="M192.2,109.9c0,1.9-2,4-4.6,7.2c-8.9,10.9-28.6,30.3-28.6,78.4c0,24.9,4.1,35.2,4.1,46.9 c0,5.3-1.1,8.1-3.8,8.1c-6.3,0-16.9-26.3-16.9-57.7c0-65.9,41.6-84.3,48-84.3C191.7,108.4,192.2,109.1,192.2,109.9 M87.5,108.4 c6.4,0,48,18.4,48,84.3c0,31.5-10.6,57.7-16.9,57.7c-2.8,0-3.8-2.8-3.8-8.1c0-11.7,4.1-22,4.1-46.9c0-48.1-19.8-67.5-28.6-78.4 c-2.6-3.2-4.6-5.3-4.6-7.2C85.6,109.1,86.2,108.4,87.5,108.4z"></path> <path class="st1" d="M123.8,121.6c0,8.6,6.8,15.6,15.2,15.6s15.2-7,15.2-15.6S147.4,106,139,106C130.5,106,123.8,113,123.8,121.6"></path> <path class="st2" d="M268.7,219.5c-21.6-13.3-54.5-27.1-102.1-31.5c-0.1,0.6-0.5,4.1-0.5,7.5c0,1.6,0.3,3.7,0.3,4.1 c46.5,3,79.6,12.9,102,20.9c0.4,0.2,0.9,0.4,1.1,0.4s0.4-0.2,0.4-0.4C270,220.2,269.6,220,268.7,219.5 M163.6,41.8 c-3.6-3.3-6.7-8.3-4.3-15.9c2.3-7.3,7.9-13.2,13.8-14.9c4,4.7,5.3,12.8,3,20.1C173.8,38.8,168.5,41.2,163.6,41.8z M198.7,71 c-1.3-4.5-1.2-10.1,4.7-15.1c5.6-4.7,13.2-6.7,18.9-4.9c0.8,5.9-2.3,13.1-7.9,17.8C208.5,73.8,202.9,73,198.7,71z M199.8,115 c1.5-4.4,4.6-8.9,12.1-9.7c7.1-0.8,14.4,1.9,18,6.4c-2.6,5.2-9.1,9.3-16.2,10.1C206.2,122.7,202.2,119,199.8,115z M187.1,131 c2.4-3.3,6.3-6.3,12.8-5c6.3,1.2,11.7,5.4,13.6,10.2c-3.6,3.8-10.2,5.6-16.5,4.3C190.5,139.2,188.1,135,187.1,131z M148.9,89.3 c-4.4-3.9-8-9.9-5.2-19.1c2.7-8.8,9.4-15.9,16.6-17.8c4.8,5.6,6.4,15.3,3.6,24.1C161.1,85.7,154.7,88.6,148.9,89.3z M165.6,99 c-1.4-5.1-1.3-11.4,5.3-17c6.3-5.3,14.9-7.5,21.2-5.5c0.9,6.6-2.6,14.7-8.9,20C176.6,102.2,170.4,101.3,165.6,99z M176.7,63.4 c-3.2-5.1-5.1-11.9,0.2-20.2c5.1-7.8,13.7-13,21.2-12.9c3.2,6.9,2,16.8-3.1,24.6C189.7,63.3,182.7,64.3,176.7,63.4z M199.2,94.4 c0.1-5.6,2-11.9,10.3-15.7c7.9-3.6,17.3-3.3,23.1,0.6c-1,7-6.9,14.2-14.8,17.8C209.5,100.8,203.4,98,199.2,94.4z M126.7,30.2 c0-10.6,5-20.8,12.3-25.4c7.3,4.6,12.2,14.8,12.2,25.4c0,11.1-6.1,16.4-12.2,19.3C132.8,46.6,126.7,41.3,126.7,30.2z M7.9,220.5 c0,0.2,0.1,0.4,0.4,0.4c0.2,0,0.6-0.2,1.1-0.4c22.4-8,55.6-17.9,102-20.9c0.1-0.4,0.3-2.5,0.3-4.1c0-3.4-0.4-6.9-0.5-7.5 c-47.6,4.4-80.5,18.2-102.1,31.5C8.3,220,7.9,220.2,7.9,220.5z M101.7,31.1c-2.3-7.3-1-15.4,3-20.1c6,1.6,11.6,7.6,13.8,14.9 c2.4,7.6-0.7,12.6-4.3,15.9C109.4,41.2,104.1,38.8,101.7,31.1z M63.5,68.8C57.9,64,54.8,56.9,55.6,51c5.7-1.8,13.3,0.1,18.9,4.9 c5.9,5,6,10.6,4.7,15.1C74.9,73,69.4,73.8,63.5,68.8z M64.2,121.9C57,121.1,50.5,117,48,111.8c3.6-4.6,10.9-7.2,18-6.4 c7.5,0.8,10.6,5.3,12.1,9.7C75.7,119,71.7,122.7,64.2,121.9z M80.8,140.5c-6.3,1.2-12.9-0.6-16.4-4.3c1.9-4.8,7.3-9,13.6-10.2 c6.6-1.3,10.4,1.7,12.8,5C89.8,135,87.4,139.2,80.8,140.5z M113.9,76.5c-2.7-8.8-1.2-18.5,3.6-24.1c7.2,1.9,13.9,9.1,16.6,17.8 c2.8,9.2-0.8,15.1-5.2,19.1C123.1,88.6,116.8,85.7,113.9,76.5z M94.7,96.6c-6.3-5.3-9.8-13.4-8.9-20c6.4-2,14.9,0.2,21.2,5.5 c6.6,5.6,6.7,11.9,5.3,17C107.5,101.3,101.3,102.2,94.7,96.6z M82.8,55.1c-5.1-7.8-6.3-17.8-3.1-24.6c7.6-0.1,16.2,5,21.2,12.9 c5.3,8.2,3.4,15.1,0.2,20.2C95.2,64.3,88.2,63.3,82.8,55.1z M60.1,97c-7.9-3.6-13.9-10.8-14.8-17.8c5.9-3.9,15.2-4.2,23.1-0.6 c8.3,3.8,10.2,10.1,10.3,15.7C74.5,98,68.4,100.8,60.1,97z"></path> <path class="st0" d="M538.4,188.1v-61c0-8.2-0.8-23.8-1-27.4h18.9l0.9,12.4h0.4c2.2-3.5,9.3-14.4,25.8-14.4c19.9,0,31,14.6,31,32.9 V188h-21.1v-53.2c0-11.2-6.3-19.7-17-19.7c-11.1,0-17,8.9-17,19.7V188h-20.9 M415.2,100h-21.1v88.1h21.1V100z M715.8,188.1 c-0.7-4.9-2.7-17.9-2.7-29.1v-57.3c-3.3-0.8-15.3-4-29-4c-35.7,0-51.1,23.9-51.1,49.8c0,23.8,12,42.5,34.9,42.5 c16.8,0,24.3-10.9,27.1-16.6h0.5c0.2,2.7,1,12.1,1.2,14.7H715.8z M692.1,144.4c0,20.2-7.9,28.6-19.3,28.6c-11.5,0-18-9.8-18-26.9 c0-17.5,10.1-32,28.6-32c3.8,0,6.5,0.4,8.8,0.9L692.1,144.4L692.1,144.4z M373.1,166.5c-5.7,2.7-14.9,4.5-23.8,4.5 c-24.2,0-42.1-17.3-42.1-43.7c0-26.2,17.7-43.7,42.1-43.7c12.1,0,20.7,2.9,23.8,4.4V69.1c-5.3-2-13.9-4-26-4 c-37.6,0-62.9,26-62.9,62.1c0,34.2,23.3,62.1,62.9,62.1c11.6,0,20.3-1.8,26-3.9V166.5z M494.6,177.5v6.6c0,18-11.1,25-24.9,25 c-12.4,0-21.5-3.7-24.4-4.7v17.8c2.4,0.6,12.4,3.8,26.7,3.8c25.5,0,42.5-10.5,42.5-46.5v-77.7c-3.3-0.8-15.2-4-29-4 c-35.7,0-51.1,23.9-51.1,49.8c0,23.8,12,42.5,34.9,42.5c15.1,0,22.4-9.1,24.8-12.5L494.6,177.5L494.6,177.5z M493.5,144.4 c0,20.2-7.9,28.6-19.4,28.6s-18-9.8-18-26.9c0-17.5,10-32,28.6-32c3.8,0,6.5,0.4,8.8,0.9L493.5,144.4L493.5,144.4z M391.6,76.9 c0,7.1,5.8,12.8,13.1,12.8c7.2,0,13-5.7,13-12.8s-5.8-12.8-13-12.8C397.5,64.1,391.6,69.9,391.6,76.9z"></path> <path class="st0" d="M754.6,185.5c-2.3,2.3-5.1,3.5-8.3,3.5c-3.3,0-6-1.2-8.3-3.5s-3.4-5.1-3.4-8.3c0-3.2,1.1-6,3.4-8.3 c2.3-2.3,5-3.4,8.3-3.4c3.2,0,6,1.1,8.3,3.4s3.4,5,3.4,8.3C758,180.4,756.9,183.2,754.6,185.5 M739.1,170c-2,2-2.9,4.3-2.9,7.1 c0,2.8,1,5.2,2.9,7.2c2,2,4.3,3,7.1,3s5.2-1,7.1-3c2-2,2.9-4.4,2.9-7.2c0-2.8-1-5.2-2.9-7.1c-2-2-4.4-3-7.1-3 C743.5,167.1,741.1,168.1,739.1,170z M746,170.7c1.6,0,2.8,0.2,3.5,0.5c1.3,0.5,2,1.6,2,3.3c0,1.2-0.4,2-1.3,2.5 c-0.4,0.3-1.1,0.5-1.9,0.6c1,0.2,1.7,0.6,2.2,1.3c0.5,0.7,0.7,1.3,0.7,2v0.9c0,0.3,0,0.6,0,1c0,0.3,0.1,0.6,0.1,0.7l0.1,0.2h-2.1 v-0.1v-0.1v-0.4v-1c0-1.5-0.4-2.5-1.2-2.9c-0.5-0.3-1.3-0.4-2.5-0.4h-1.8v5.1h-2.3V171h4.5V170.7z M748.5,172.7 c-0.6-0.3-1.5-0.5-2.8-0.5h-1.9v4.7h2.1c1,0,1.7-0.1,2.2-0.3c0.9-0.4,1.3-1,1.3-2C749.3,173.7,749.1,173,748.5,172.7z"></path> </g> </svg> 