<?xml version="1.0" encoding="UTF-8"?> <svg xmlns="http://www.w3.org/2000/svg" xmlns:xlink="http://www.w3.org/1999/xlink" version="1.1" id="layer" x="0px" y="0px" viewBox="0 0 616 132" style="enable-background:new 0 0 616 132;" xml:space="preserve"> <style type="text/css"> .st0{fill:#4E8416;} </style> <path class="st0" d="M176.2,34.5c-2.1,0-3.6,1.5-3.6,3.6v70.3c-5.1,1-10.8,2.1-16.4,2.1c-12.3,0-16.4-4.6-16.4-17.9V38.2 c0-2.1-1.5-3.6-3.1-3.6h-18.5v57.9c0,27.2,14.4,35.9,37.4,35.9c18.5,0,36.9-5.1,38.5-5.6V34.6h-17.9V34.5z M458.8,127.3 c1.5,0,3.6-1.5,3.6-3.6V52.9c5.1-1,10.8-2.1,16.4-2.1c12.3,0,16.4,4.6,16.4,17.9v54.9c0,2.1,1.5,3.6,3.1,3.6h18.5V68.7 c0-27.2-14.4-35.9-37.4-35.9c-18.5,0-36.9,5.1-38.5,5.6v88.7h17.9V127.3z M384.9,32.9c-24.1,0-39,12.8-39,41v13.8 c0,30.8,16.4,41,33.8,41c8.7,0,17.9-6.2,20.5-9.7v5.6c0,1.5,1.5,3.1,3.1,3.1c0,0,17.9,0,18.5,0V38C422.3,38.1,404.4,32.9,384.9,32.9 z M400.8,104.7c-4.1,3.6-7.2,5.6-15.9,5.6c-12.3,0.5-17.4-7.2-17.4-23.1V74.4c0-17.9,6.7-23.1,17.4-23.1c8.7,0,13.8,0.5,15.9,1 V104.7z M571.1,32.9c-24.1,0-39,12.8-39,41v13.8c0,30.8,16.4,41,34.4,41c8.7,0,17.9-6.2,20.5-9.7v5.6c0,1.5,1.5,3.1,3.1,3.1 c0,0,17.9,0,18.5,0V38C608.5,38.1,590.6,32.9,571.1,32.9z M587,104.7c-4.1,3.6-7.2,5.6-15.9,5.6c-12.3,0-17.4-7.2-17.4-23.1V74.4 c0-18.5,6.7-23.1,17.4-23.1c8.7,0,13.8,0.5,15.9,1V104.7z M8.5,127.3c3.1,0,19.5,0,19.5,0c1.5,0,3.1-1.5,3.1-3.1V72.9H67 c6.2,0,10.3,4.6,10.3,9.7v41.5c0,1.5,1.5,3.1,3.1,3.1c0,0,18.5,0,19.5,0c0,0,0-121,0-122.1H80.3c-1.5,0-3.1,1.5-3.1,3.1v46.2H40.3 c-5.1,0-8.7-4.1-8.7-8.7V8.3c-0.5-1-1.5-3.1-3.6-3.1H8.5C8.5,6.3,8.5,127.3,8.5,127.3z M297.2,32.9c-10.3,0-20,4.1-24.6,7.2 c-6.7-5.1-15.9-7.2-27.2-7.2c-16.9,0-31.3,5.1-33.3,6.2v88.7h18.5c2.1,0,3.1-1.5,3.1-3.6V52.9c4.6-1,8.2-1.5,11.3-1.5 c12.8,0,15.9,5.1,15.9,17.9v54.9c0,1.5,1,3.6,3.1,3.6h15.4c2.1,0,3.1-1.5,3.1-3.6V55.5c3.6-2.6,8.2-4.1,12.8-4.1 c9.7,0,13.8,4.6,13.8,16.4v56.4c0,1.5,1,3.6,3.1,3.6c0,0,16.9,0,18.5,0V64.7C331.1,41.2,316.2,32.9,297.2,32.9z"></path> </svg> 