<?xml version="1.0" encoding="UTF-8"?> <svg xmlns="http://www.w3.org/2000/svg" xmlns:xlink="http://www.w3.org/1999/xlink" version="1.1" id="layer" x="0px" y="0px" viewBox="0 0 612 119" style="enable-background:new 0 0 612 119;" xml:space="preserve"> <style type="text/css"> .st0{fill:#003A70;} </style> <path class="st0" d="M91.3,16.2c-5.6-0.9-23.5-1-32.1,11.8c-0.1,0.1-0.2,0-0.2-0.1C59.9,14.7,79.1,12.3,84.6,12 C86.9,13.2,89.2,14.6,91.3,16.2 M52.3,43c-0.9,0.1-1.4,0.3-1.7,1.1c-0.6,1.3-0.1,2.3-0.9,2.9c-0.4,0.3-0.3,1.1,0.2,1.1 c3.4-0.1,5.7-0.1,9.7-2.7c0.4-0.3,0.4-0.9-0.1-1.1C57.3,43.7,54.2,42.9,52.3,43 M74.9,35.1c0.1,0,0.2,0,0.3,0 c0.7,0.1,1.3,0.3,0.9-0.3l0,0c-2.2-3-6.1,0.3-7.4,1.6c1.2,0.6,2.2,1.3,3.2,2.2C72.3,36.5,73.8,34.9,74.9,35.1 M103.7,74.7 c0,7.5-1.2,15-4.9,20.9c-2.7,2.9-5.7,5.5-9,7.8c0.4-1.8,0.9-3.9,1.4-6l0,0c2.5-11.3,4.8-26.6,1.1-33.7c-0.1-0.1-0.2,0-0.2,0.1 C92.9,83.2,79,93,74,106.6c0,0-0.9,3-1.2,4.5c-3,0.7-6,1.2-9.2,1.4c-0.1-0.9-0.1-2-0.1-3c0-6.5,2.6-12.2,6.3-16.9 c4.4-5.5,8.3-11.3,10.7-18.1c0.1-0.4,0.3-0.8,0.4-1.1c1.6-5,2.2-10.3,1.9-15.5c0-0.5-0.1-1.4-0.1-1.9c-0.1-0.7-0.2-1.9-0.3-1.9 c-0.2,0-0.3,1.1-0.4,1.6s-0.3,1-0.4,1.6c-0.3,1-0.6,2-1,3c-1.3,3.5-3.1,7-5.6,9.9c-3.3,3.8-6.1,6.2-8.7,9c-4.5,3.9-7.7,9.3-8.9,15.5 c-0.8-2-1.1-3.9-1.1-6.3c0-4.9,1.3-9.6,3.7-13.5c-9.6,4.6-16.3,14.4-16.3,25.8c0,1.8,0.2,3.6,0.5,5.4l0.9,4.6 C22.9,104.3,6.7,83.8,6.7,59.5C6.7,30.1,30.6,6.2,60,6.2c6.8,0,13.3,1.3,19.3,3.6c-5.4,0.3-25.5,2.5-28.2,19c0,0.2-0.3,0.1-0.3,0 c-2.8-6.9,1.6-12.3,4.1-14.1c0.1-0.1-12.8,6.1-7.7,20.8c0,0.1,0,0.1-0.1,0.2c-0.5,0.3-0.8,0.3-1.3,0.4c-6.9,1.9-8.1,11-9,11.7 c-2.4,1.8-6.5,3.7-8.9,5.4c-1,0.7-2.5,3-2.9,4.5c-0.2,0.5,0.4,1.3,0.9,1.2c1-0.1,1.2-1.1,2.8-1.1c1.8,0,2.4,1.2,4.1,1.3 c1.2,0.1,2.1-0.6,3.2-0.6c0.9,0,1.7,0.1,2.3,0.5c0.4,0.3,0.9,1.3,1.2,2.2c0.1,0.3-0.1,0.5-0.4,0.5c-1.3-0.4-3.2-0.7-4.4-0.4 c-2.7,0.7-4.1,1.3-4.2,6.3c0,0.7,1.1,2.7,4,4.7c3.8,2.2,7.4,3.2,11.1,3.2c1.4,0,2.8,0,4.1-0.2c4.6-0.9,4.2-7.5,4.2-7.5 c1.6,0.5,5.8,0.7,5.8,0.7c12.2,0.2,13.8-15.2,12.2-20.2c2.2,2,3.5,4.8,3.5,8c0,1.6-0.3,3-0.9,4.3c-0.3,0.7-0.5,1.2-0.6,1.4 c2.5-2.8,4.2-6.8,4.2-10.9c0-1.9-0.3-3.8-0.9-5.5c-0.1-0.2-0.2-0.5-0.4-0.8l0.1-0.1c2.5-1.2,4.3-3.8,4.3-6.7c0-3.1-1.9-5.7-4.5-6.9 c-4.1-1.4-6.9,0.4-8.8,1.8c-0.8,0.6-1.5,1.3-2.2,2.1c-0.1,0.1-0.3,0.2-0.5,0.2s-0.4-0.1-0.6-0.1s-0.3-0.3-0.3-0.5 c0,0,2.9-18.6,34.9-11.2c2.5,2.7,4.7,5.7,6.6,8.9c-0.5-0.2-3.8-1.4-6.3-2.2c-3.7-1.1-7.7-1.8-11.8-1.8c-3,0-5.9,0.3-8.8,1 c2.6,1.3,3.7,3.5,4.1,4.3c11.4,0.8,21.8,6.4,28.9,14.4c0.7,3.2,1.1,6.5,1.2,9.9c-8-6.4-17.5-11.9-27.3-15.6l0,0 C96.5,49,103.7,61,103.7,74.7 M26.6,71c0.5-1,1-3.3,1-4.4c0-2.2-0.4-5.6-2-5.7c-0.4,0-1,0.7-1.1,0.8c-0.7,1.2-0.9,2.6-0.8,3.9 c0.1,1,0.3,1.9,0.5,2.9c0.2,0.6,0.4,1.2,0.6,1.7c0.2,0.6,0.6,2,0.9,2C26,72.2,26.4,71.4,26.6,71 M46.4,78.6c0.1-0.1,0-0.2-0.1-0.2 c-3.9,0.6-8-0.8-10.4-1.9c-2.1-1-5.5-3.5-6.5-5.8c-0.4,0.7-1,1.9-1.1,3.7c-0.1,0.9,0.2,2.9,0.2,2.9c0.2,1.1,0.9,2.4,1.5,3.4 c0.2,0.5,0.5,0.9,0.9,1.3c0.2,0.3,0.2,0,0.2-0.1c-0.1-0.6,0.1-2,0.4-2.6c1,1.9,4.2,6.4,7,8.2l0,0l0,0C38.6,87.6,38.7,84.5,46.4,78.6 M328.6,68.1V49.5H317v18.6v19h23.2v-4.5h-11.6V68.1z M217.4,54.3h8.1v13.5V87H237V68V54.2h8.3v-4.8h-28v4.9H217.4z M202.6,68.1V84 c-3.3,0.3-6-0.5-6-3.5V68.1V49.5h-10.8v18.6v7.6v2.8c0,4.3,2,6.4,4.5,7.6c1.3,0.6,2.8,1,4,1h19.4v-1v-18V49.5h-11.1L202.6,68.1 L202.6,68.1z M305.2,49.5c3.3,0,5.8,2.5,5.8,5v1.8v13.6V86v1h-21.2c-1.3,0-2.5-0.2-3.5-1c-2-1.3-3.3-3.5-3.3-7.3v-3v-5.8v-0.8 c0-3.6,2.5-6.5,5.5-6.5h11.3V58c0,0,0.3-2-0.5-3.5c-0.5-0.8-1.3-1.5-2.3-1.5h-12.6v-3.5L305.2,49.5 M299.9,69.9v-3.6 c-2.8,0-5.3,0.9-5.4,3.9c-0.2,4.9-0.1,10.3-0.1,10.3c0.2,3.5,2.3,3.8,5.5,3.5V69.9z M265.9,68.1V84c-3.3,0.3-6-0.5-6-3.5V68.1V49.5 h-10.8v18.6v7.6v2.8c0,4.3,2,6.4,4.5,7.6c1.3,0.6,2.8,1,4,1H277v-1v-18V49.5h-11.1V68.1z M486.7,49.5h-38.4v7.3v11.3v19h11.6v-19 V56.8V53c3.3,0,5.5,0.8,5.5,3.8v11.3v19h11.8v-1v-18V56.8V53c3.3,0,5.5,0.8,5.5,3.8v11.3v19h11.8v-19V56.5 C494.6,53.5,490.7,49.5,486.7,49.5 M441.7,49.5c0.2,1.5,0.5,3.3,0.5,5c0.2,3.3,0.2,7,0,10.6c-0.1,1-0.3,2-0.5,2.9l0,0 c-0.5,2.7-1.1,5.4-2.1,7.6c-0.5,1-1,2-1.8,3c-2.6,3.1-6.1,5.5-10.1,7.3c-3.3,1.5-7,2.3-11.3,2.3c-5,0.3-9.3-0.5-13.4-2.3 c-4.3-1.8-7.8-5-10.8-10.3c-0.3-0.5-0.4-1-0.6-1.5c-0.7-1.7-1.3-3.8-1.7-6.1l0,0c-0.2-1-0.3-1.9-0.5-3c-0.2-3.3-0.2-7.1,0.3-10.6 c0.2-2.3,0.5-4.5,1-6.6c0-0.1,0.1-0.3,0.1-0.4l0,0c0.3-1.1,0.7-2.3,1.2-3.4c3.8-8.6,11.8-14.6,24.2-14.4c11.3,0,19.7,4.5,23.7,14.4 c0.5,1,0.9,2.2,1.2,3.4l0,0C441.3,48.2,441.5,48.9,441.7,49.5 M428.3,68.1c0-1,0-2,0-3v-6v-4.3c0-2.6,0-5-0.1-7.2l0,0 c-0.1-1.2-0.2-2.3-0.4-3.4c-1-6.3-3.8-10.8-11.6-10.8c-8.8,0-11.6,4-12.3,10.8c-0.2,1.1-0.3,2.2-0.4,3.4c-0.1,2.2-0.1,4.5-0.1,6.9 V59v6c0,1,0,2,0,2.9l0,0c0.1,2.8,0.3,5.4,0.7,7.6c1.3,5.8,4.5,9.6,12.1,9.6c7,0,10.1-4,11.3-9.6C428.1,73.3,428.3,70.7,428.3,68.1 L428.3,68.1z M161.3,47.6l-5.1,20.5l-0.4,1.6l-0.4-1.6l-5.7-20.5l-4.5-16.2h-15.1v16.2V68v19h5.3V68V47.5v-4.6l1.3,4.6l5.6,20.5 l5.2,19h8.8l4.9-19l5.3-20.5l1.2-4.6v4.6V68v19h12.1V68V47.5V31.3h-14.4L161.3,47.6z M372.9,47.6c1-1.4,2.2-2.9,3.7-4.4 c2.3-2.3,5.1-4,9.3-5V41c-4.2-0.2-5.2,1.9-6.3,3.3c-0.4,0.4-1.2,1.8-1.9,3.4l0,0c-0.4,1-0.9,2.1-1.1,3.1h9.3l-0.8,3H375 c0,0-1.3,4.3-2.5,7.5c-0.5,1.5-1,2.8-1.5,3.8c-0.5,1.1-1,2.1-1.4,2.9l0,0c-2.5,4.9-4.3,6.6-5.4,7.6c-4,4-12.4,7.9-18.4,6.5 c-1.6-0.4-2.1-0.5-2.6-0.7c-0.4-0.2-0.8-0.4-1.7-0.8l0.3-2.7c0,0,5.5,3.1,10.6,1.4c5.7-1.9,8.1-7.1,9.3-9.3c0.4-0.6,0.8-1.3,1.2-2.1 l0,0c0.5-0.9,0.9-1.9,1.3-2.9c1.8-4,3.8-8.6,4.5-10.6c0.3-0.5,0.5-0.8,0.5-0.8h-7.5c0,0.3,0.1,0.5,0.2,0.8c1.2,5.7-1.5,11-4.7,13.1 c-0.2,0.1-0.5,0.3-0.7,0.4l0,0c-3.9,2-10,2.4-13.6,0l0,0c-0.5-0.4-0.9-0.7-1.3-1.2c-1.8-2.1-1.8-5-0.7-7.3c1.3-2.8,3-6.9,8.6-8.6 c2.5-0.7,4-0.5,6.3-0.3h15.1C370.8,50.7,371.6,49.4,372.9,47.6L372.9,47.6 M354.5,61.8c1.2-2.7,2.5-5,2-7.3 c-0.2-1.3-1.8-1.8-3.8-1.5c-0.9,0.1-1.8,0.8-2.3,1.5c0,0-2.7,5-3.3,6.3c-0.7,1.5-1.3,3-1.3,4.3c0,1.2,0.8,1.9,2.3,2.3 c1.8,0.5,3.3-0.5,4.5-2.3C353.5,64.1,353.9,63.1,354.5,61.8 M522.8,49.5c3.3,0,5.8,2.5,5.8,5v1.8v13.6V86v1h-21.2 c-1.3,0-2.5-0.2-3.5-1c-2-1.3-3.3-3.5-3.3-7.3v-3v-5.8v-0.8c0-3.6,2.5-6.5,5.5-6.5h11.3v-2.8c0,0,0.3-3.8-0.5-5.3 c-0.5-0.8-1.3-1.5-2.3-1.5H502v-3.5L522.8,49.5 M517.5,69.9v-3.6c-2.8,0-5.3,0.9-5.4,3.9c-0.2,4.9-0.1,10.3-0.1,10.3 c0.3,3.5,2.3,3.8,5.5,3.5V69.9z M592.4,49.4c3.3,0,5.8,2.5,5.8,5v1.8v13.6V86v1H577c-1.3,0-2.5-0.2-3.5-1c-2-1.3-3.3-3.5-3.3-7.3v-3 v-5.8v-0.8c0-3.6,2.5-6.5,5.5-6.5H587v-2.8c0,0,0.3-3.9-0.5-5.3c-0.5-0.8-1.3-1.5-2.3-1.5h-12.6v-3.5h20.8 M587.1,69.9v-3.6 c-2.8,0-5.3,0.9-5.4,3.9c-0.2,4.9-0.1,10.3-0.1,10.3c0.2,3.5,2.3,3.8,5.5,3.5V69.9z M552.5,54.5v6.6v1.5h-6.2v-1.5v-6.6v-5h-11.8v5 v6.6v3v11.6V86v1h11.8v-1V75.7v-8.5h6.2v8.5V86v1h11.8v-1V75.7V64.1v-3v-6.6v-5h-11.8V54.5z M604.1,49.4c1.3,0,2.3,1,2.3,2.3 s-1,2.3-2.3,2.3s-2.3-1-2.3-2.3S602.8,49.4,604.1,49.4 M604.1,53.7c1,0,1.9-0.8,1.9-1.9c0-1-0.8-1.9-1.9-1.9c-1,0-1.9,0.8-1.9,1.9 C602.2,52.8,603.1,53.7,604.1,53.7 M604.6,51.2c0-0.2-0.1-0.3-0.3-0.4c-0.1,0-0.2,0-0.4,0h-0.3v0.9h0.3c0.3,0,0.4,0,0.5-0.1 C604.6,51.5,604.6,51.4,604.6,51.2 M604.7,53.1c-0.1-0.1-0.1-0.2-0.2-0.4c-0.2-0.3-0.5-0.8-0.5-0.8s-0.2,0-0.3,0V53h-0.4v-2.6h0.8 c0.3,0,0.6,0.1,0.7,0.2c0.1,0.1,0.3,0.3,0.3,0.5c0,0.4-0.3,0.7-0.7,0.7c0,0,0.1,0.2,0.2,0.2c0.1,0.1,0.1,0.2,0.2,0.3 c0.1,0.2,0.4,0.5,0.4,0.6h-0.5V53.1z"></path> </svg> 