<?xml version="1.0" encoding="UTF-8"?> <svg xmlns="http://www.w3.org/2000/svg" xmlns:xlink="http://www.w3.org/1999/xlink" version="1.1" id="layer" x="0px" y="0px" viewBox="0 0 609 198" style="enable-background:new 0 0 609 198;" xml:space="preserve"> <style type="text/css"> .st0{fill:#002677;} </style> <path class="st0" d="M39.2,183.7L39.2,183.7c6.1,2.1,12.5,3.2,19,3.1c28.6,0,48.5-20.7,48.5-60.1V9.2L117.6,4v124.7 c0,40.2-20.7,63.6-50.1,63.6C57.3,192.3,47.5,189.3,39.2,183.7z M26.7,171.7L26.7,171.7c6.6,2.2,13.2,3.6,19,3.6 c24,0,40-15.1,40-49.1v-108l10.7-5.1v114c0,35.6-18.1,53.9-43.2,53.9C44,181,34.6,177.6,26.7,171.7z M19.2,161.1L19.2,161.1 c5.1,1.7,10.5,2.6,15.9,2.8c18.7,0,30.2-10.2,30.2-37.1V27.2l10.5-5.1v103c0,30.2-13.8,43.8-33.6,43.8 C33.8,169,25.7,166.2,19.2,161.1z M55.3,129.7V31.4L9,52.3v79.8c0,15.2,9.6,25.4,23.7,25.4S55.3,147.1,55.3,129.7z M177.1,31.2v36.6 c0,13.5,8,24.1,23.3,24.1c13.1,0,23-9.7,23-24.4V32.1c-0.1-3.9,2.9-7.2,6.8-7.3h0.1l1.4-0.1v-3.5h-23v3.5l1.5,0.1 c3.9,0.1,7,3.3,6.9,7.2v0.1v34.3c0,11.2-5.8,18-14.9,18s-14.6-7.2-14.6-18.1V31.1c0-3.8,2.1-6.1,6.4-6.3l1.4-0.1v-3.5h-26.2v3.5 l1.5,0.1C175,25.2,177.1,27.3,177.1,31.2z M208.2,109.4l1.5,0.1c3.7,0.2,6.4,1.7,6.4,5.8v21.5h-25.9v-21.5c0-4.2,2.8-5.5,6.4-5.8 l1.4-0.1v-3.5h-26.2v3.5l1.5,0.1c3.7,0.2,6.4,1.7,6.4,5.8v50.4c0,4.2-2.8,5.6-6.4,5.8l-1.5,0.1v3.5H198v-3.5l-1.4-0.1 c-3.7-0.3-6.4-1.7-6.4-5.8v-23.5H216v23.5c0,4.2-2.8,5.6-6.4,5.8l-1.5,0.1v3.5h26.2v-3.5l-1.4-0.1c-3.6-0.3-6.4-1.7-6.4-5.8v-50.4 c0-4.2,2.8-5.5,6.4-5.8l1.4-0.1v-3.5h-26.1L208.2,109.4L208.2,109.4z M231.7,41.6v3.3l2,0.1c3,0.2,4.9,1.7,4.9,5.8v30.4 c0,4.1-2.1,5.6-5.4,5.8l-1.5,0.1v3.4h23.4v-3.4l-1.4-0.1c-3.4-0.2-5.4-1.7-5.4-5.8V65c0.2-11.9,5.3-19,11.4-19 c4.6,0,7.7,3.2,7.7,9.3v25.8c0,4.1-2.1,5.6-5.4,5.8l-1.5,0.1v3.4h23.4V87l-1.4-0.1c-3.4-0.2-5.4-1.7-5.4-5.8v-27 c0-7.7-4.7-14.1-14.1-14.1c-6.6,0-12.4,4-14.6,11V40.2L231.7,41.6z M366.8,91.5c10,0,15.6-6.8,17.9-14.5l-4.3-1.2 c-2,5.3-5.4,9.5-12.3,9.5c-8,0-13.4-7.6-13.4-19.7h30.7v-2.9c0-12.7-7.5-23-19.6-23c-12.9,0-21.5,12.4-21.5,25.9 C344.3,79.1,352.6,91.5,366.8,91.5z M365.7,45.3c5.4,0,8.9,5.1,9.3,15.4h-20.2C355.8,51.2,359.8,45.3,365.7,45.3L365.7,45.3z M318.2,79.4c0,7.7,4.6,12.1,12.1,12.1c6.9,0,11.5-5.1,13.5-12.3l-3.6-1c-1.4,4.2-3.7,6.7-6.8,6.7c-4.2,0-5.5-3-5.5-6.6v-32h13.5 v-5.1h-13.5V26H323c-1.9,11.5-7.7,15.6-13.8,16.9v3.5h9.1L318.2,79.4z M297.5,32.3c3.6-0.1,6.4-3.2,6.3-6.8 c-0.1-3.4-2.9-6.1-6.3-6.3c-3.5,0-6.3,2.9-6.3,6.4C291,29.3,293.8,32.2,297.5,32.3C297.4,32.3,297.4,32.3,297.5,32.3z M292.9,50.8 v30.4c0,4.1-2.1,5.6-5.4,5.8l-1.5,0.1v3.4h23.4v-3.4L308,87c-3.4-0.2-5.4-1.7-5.4-5.8V40.3l-17.1,1.3v3.3L288,45 C291,45,292.9,46.6,292.9,50.8z M410.6,91.5c6.5,0,11.6-3.4,13.7-9.1v8.1h16.5v-3.3l-1.4-0.1c-3.4-0.2-5.4-1.7-5.4-5.8V20l-16.8,1.5 v3.3l2.2,0.1c3,0.1,4.9,1.7,4.9,5.8v17.8c-2.2-5.5-7.2-8.8-13.7-8.8c-12.9,0-20.3,12.4-20.3,25.9C390.3,79.1,397.6,91.5,410.6,91.5z M412.2,45.3c7.3,0,12.1,7.9,12.1,20.2s-4.7,20.2-12.1,20.2c-6.9,0-11.5-7.8-11.5-20.2S405.3,45.3,412.2,45.3z M557.6,124.5 c-5.7,0-10.7,3.8-12.8,10.5v-10.1l-16.6,1.3v3.3l2,0.1c3,0.2,4.9,1.7,4.9,5.8v30.4c0,4.2-2,5.6-5.4,5.8l-1.5,0.1v3.4h23.4v-3.4 l-1.4-0.1c-3.4-0.2-5.4-1.7-5.4-5.8v-16.6c0.2-12.3,5.5-20.1,12.1-20.1c1.2-0.1,2.4,0.4,3.3,1.3c-1.7,0.9-2.8,2.7-2.8,4.6 c0,2.9,2.3,5.2,5.2,5.2s5.2-2.4,5.2-5.7C567.8,128.4,563.1,124.5,557.6,124.5z M589.4,124.3c-12.9,0-21.5,12.3-21.5,25.9 s8.3,25.9,22.5,25.9c10,0,15.6-6.8,17.9-14.5l-4.3-1.2c-2,5.3-5.4,9.5-12.3,9.5c-8,0-13.4-7.6-13.4-19.7H609v-2.9 C609,134.6,601.5,124.3,589.4,124.3z M578.4,145.3c1-9.6,4.9-15.4,10.9-15.4c5.4,0,8.9,5.1,9.3,15.4H578.4z M519.8,166.9v-25.8 c0-10.6-6.6-16.8-17.8-16.8c-9.6,0-18.1,6.3-18.1,13.5c-0.1,2.9,2.2,5.3,5.1,5.3s5.3-2.2,5.3-5.1c0-1.9-1-3.7-2.7-4.6 c1.8-2.5,4.9-4,8.8-4c6.1,0,9.7,4.5,9.7,12.1v2.3l-14.6,6.1c-9.8,4-13.1,7.6-13.1,14c0,7.4,5.3,12.1,13.7,12.1 c6.2,0,11.7-3.9,13.9-9.7v1.5c0,5.1,3.6,8.1,9.5,8.1c2.1,0,4.2-0.3,6.2-0.9v-3.3C521.6,172.2,519.8,170.6,519.8,166.9z M510.1,155.7 c-0.5,8.7-4.8,14.5-10.9,14.5c-4.3,0-7.1-3-7.1-7.5c0-4,2.2-7.2,6.3-9l11.7-5.2V155.7z M381.1,162.8c-1.4,4.1-3.6,6.7-6.8,6.7 c-4.2,0-5.5-3-5.5-6.6v-32h13.5v-5.1h-13.5v-15.2h-4.9c-1.9,11.5-7.7,15.6-13.8,16.9v3.5h9.1v33c0,7.7,4.6,12.1,12.1,12.1 c6.9,0,11.5-5.1,13.5-12.3L381.1,162.8z M318.4,166.9v-25.8c0-10.6-6.6-16.8-17.8-16.8c-9.6,0-18.1,6.3-18.1,13.5 c-0.1,2.9,2.2,5.3,5.1,5.3s5.3-2.2,5.3-5.1c0-1.9-1-3.7-2.7-4.6c1.8-2.5,4.9-4,8.8-4c6.1,0,9.7,4.5,9.7,12.1v2.3l-14.6,6.1 c-9.8,4-13.1,7.6-13.1,14c0,7.4,5.3,12.1,13.7,12.1c6.2,0,11.7-3.9,13.9-9.7v1.5c0,5.1,3.6,8.1,9.5,8.1c2.1,0,4.2-0.3,6.2-0.9v-3.3 C320.3,172.2,318.4,170.6,318.4,166.9z M308.8,155.7c-0.5,8.7-4.8,14.5-10.9,14.5c-4.3,0-7.1-3-7.1-7.5c0-4,2.2-7.2,6.3-9l11.7-5.2 V155.7z M462.8,169.8c-8,0-13.4-7.6-13.4-19.7c0-12.3,5.3-20.1,13.3-20.1c3.6,0,6.3,1.2,8,3.4c-1.5,1-2.5,2.7-2.5,4.5 c0,2.9,2.3,5.2,5.2,5.2c3,0,5.2-2.4,5.2-5.7c0-5.9-5.9-13.2-16.5-13.2c-14.7,0-23.2,12.3-23.2,25.9c0,13.5,8.3,25.9,22.5,25.9 c9.8,0,15.3-6.5,17.5-13.9l-4.3-1.3C472.8,165.9,469.5,169.8,462.8,169.8z M343.4,165.8v-61.1l-16.8,1.4v3.3l2.2,0.1 c3,0.1,4.9,1.7,4.9,5.8v50.5c0,4.2-2.1,5.6-5.4,5.8l-1.5,0.1v3.4h23.4v-3.3l-1.4-0.1C345.5,171.4,343.4,169.9,343.4,165.8z M430,165.8v-27c0-7.7-4.7-14.1-14.1-14.1c-6.6,0-12.4,3.9-14.6,11v-31l-16.8,1.4v3.3l2.2,0.1c3,0.1,4.9,1.7,4.9,5.8v50.5 c0,4.2-2.1,5.6-5.4,5.8l-1.5,0.1v3.4H408v-3.3l-1.4-0.1c-3.4-0.2-5.4-1.7-5.4-5.8v-16.2c0.2-11.8,5.3-19,11.4-19 c4.6,0,7.7,3.2,7.7,9.3v25.9c0,4.2-2.1,5.6-5.4,5.8l-1.5,0.1v3.4h23.4v-3.4l-1.4-0.1C432,171.4,430,169.9,430,165.8z M257.8,124.3 c-12.9,0-21.5,12.4-21.5,25.9s8.3,25.9,22.5,25.9c10,0,15.6-6.8,17.9-14.5l-4.3-1.2c-2,5.3-5.4,9.5-12.3,9.5 c-8,0-13.4-7.6-13.4-19.7h30.7v-2.9C277.4,134.6,269.8,124.3,257.8,124.3z M246.8,145.3c1-9.6,4.9-15.4,10.9-15.4 c5.4,0,8.9,5.1,9.3,15.4H246.8z"></path> </svg> 