<svg
  width="246"
  height="34"
  viewBox="0 0 246 34"
  fill="none"
  xmlns="http://www.w3.org/2000/svg"
>
<path
    d="M28.0608 2.05762C27.5512 1.90329 27.0107 1.82031 26.4509 1.82031H11.6131L21.1611 19.295L28.0608 2.05762Z"
    fill="white"
  />
<path
    d="M5.27168 1.82713C2.33588 1.97181 0 4.3998 0 7.37378V18.0748C0.63094 18.0398 1.35488 18.0179 2.21965 18.0179C2.95641 18.0179 3.383 17.8859 3.63477 17.7535C3.86366 17.6332 4.0932 17.4384 4.3236 17.0378C4.86375 16.0985 5.27168 14.2768 5.27168 10.9835V1.82713Z"
    fill="white"
  />
<path
    d="M0 23.6386V26.6258C0 29.6929 2.48443 32.1793 5.54913 32.1793H21.8764L10.8108 11.9272C10.7435 15.0062 10.3224 17.7398 9.13305 19.808C8.43859 21.0155 7.47738 22.0066 6.21494 22.6702C4.97538 23.3217 3.61007 23.5714 2.21965 23.5714C1.31899 23.5714 0.609185 23.5976 0 23.6386Z"
    fill="white"
  />
<path
    d="M21.9817 32.1793H26.4509C29.5156 32.1793 32 29.6929 32 26.6258V7.37378C32 7.30239 31.9987 7.23132 31.996 7.16059L21.9817 32.1793Z"
    fill="white"
  />
<path
    d="M42.24 29V9.008H48.652L53.104 22.364H53.188L57.64 9.008H64.08V29H59.376V17.296H59.236C59.068 17.968 58.844 18.808 58.48 19.816L55.288 29H51.06L47.868 19.816C47.504 18.808 47.252 17.968 47.112 17.296H46.972V29H42.24ZM75.46 29.42C70.616 29.42 66.892 25.724 66.892 21.132C66.892 16.568 70.616 12.984 75.46 12.984C80.332 12.984 84.028 16.792 84.028 21.524C84.028 21.86 84 22.448 83.972 22.756H71.932C72.184 24.352 73.668 24.94 75.516 24.94C76.832 24.94 77.924 24.632 78.428 23.596H83.72C82.712 27.068 79.52 29.42 75.46 29.42ZM72.1 19.536H78.736C78.54 18.668 77.308 17.464 75.376 17.464C73.444 17.464 72.24 18.5 72.1 19.536ZM92.6798 29.42C88.6198 29.42 85.5678 25.78 85.5678 21.216C85.5678 16.624 88.6198 12.984 92.6798 12.984C95.0598 12.984 97.1038 14.16 97.9718 15.812H98.1118V9.008H102.928V29H98.2518V26.76H98.1118C96.6838 28.832 94.7798 29.42 92.6798 29.42ZM94.0798 24.94C96.2638 24.94 97.5518 23.4 97.5518 21.216C97.5518 19.004 96.2638 17.464 94.0798 17.464C91.8678 17.464 90.6918 19.004 90.6918 21.216C90.6918 23.4 91.8678 24.94 94.0798 24.94ZM108.923 11.36C107.439 11.36 106.235 10.156 106.235 8.672C106.235 7.216 107.439 6.012 108.923 6.012C110.379 6.012 111.583 7.216 111.583 8.672C111.583 10.156 110.379 11.36 108.923 11.36ZM106.515 28.944V13.404H111.331V28.944H106.515ZM121.965 29.364C117.401 29.364 113.677 25.668 113.677 21.076C113.677 16.512 117.401 12.816 121.965 12.816C124.345 12.816 126.501 13.824 128.013 15.42L124.905 18.556C124.261 17.8 123.309 17.324 121.965 17.324C120.033 17.324 118.493 18.892 118.493 21.076C118.493 23.288 120.033 24.856 121.965 24.856C123.197 24.856 124.065 24.464 124.709 23.82L127.817 26.956C126.305 28.468 124.261 29.364 121.965 29.364ZM135.534 29.42C131.222 29.42 128.142 25.78 128.142 21.216C128.142 16.624 131.222 12.984 135.534 12.984C137.942 12.984 139.846 14.16 140.714 15.812H140.854V13.404H145.53V29H140.854V26.76H140.714C139.286 28.832 137.662 29.42 135.534 29.42ZM136.654 24.94C138.866 24.94 140.154 23.4 140.154 21.216C140.154 19.004 138.866 17.464 136.654 17.464C134.47 17.464 133.266 19.004 133.266 21.216C133.266 23.4 134.47 24.94 136.654 24.94ZM149.144 29V13.404H158.524V17.884H153.96V29H149.144ZM167.937 29.42C163.093 29.42 159.369 25.724 159.369 21.132C159.369 16.568 163.093 12.984 167.937 12.984C172.809 12.984 176.505 16.792 176.505 21.524C176.505 21.86 176.477 22.448 176.449 22.756H164.409C164.661 24.352 166.145 24.94 167.993 24.94C169.309 24.94 170.401 24.632 170.905 23.596H176.197C175.189 27.068 171.997 29.42 167.937 29.42ZM164.577 19.536H171.213C171.017 18.668 169.785 17.464 167.853 17.464C165.921 17.464 164.717 18.5 164.577 19.536ZM185.029 29V9.008H191.441L195.893 22.364H195.977L200.429 9.008H206.869V29H202.165V17.296H202.025C201.857 17.968 201.633 18.808 201.269 19.816L198.077 29H193.849L190.657 19.816C190.293 18.808 190.041 17.968 189.901 17.296H189.761V29H185.029ZM217.073 29.42C212.761 29.42 209.681 25.78 209.681 21.216C209.681 16.624 212.761 12.984 217.073 12.984C219.481 12.984 221.385 14.16 222.253 15.812H222.393V13.404H227.069V29H222.393V26.76H222.253C220.825 28.832 219.201 29.42 217.073 29.42ZM218.193 24.94C220.405 24.94 221.693 23.4 221.693 21.216C221.693 19.004 220.405 17.464 218.193 17.464C216.009 17.464 214.805 19.004 214.805 21.216C214.805 23.4 216.009 24.94 218.193 24.94ZM228.611 29L234.071 20.992L228.835 13.404H234.575L236.703 17.044L238.831 13.404H244.571L239.335 20.992L244.795 29H239.111L236.703 25.024L234.323 29H228.611Z"
    fill="white"
  />
</svg>
